<mxfile host="app.diagrams.net" modified="2023-11-06T11:08:51.438Z" agent="Mozilla/5.0 (Windows NT 10.0; Win64; x64) AppleWebKit/537.36 (KHTML, like Gecko) Chrome/119.0.0.0 Safari/537.36" etag="60FzXVRjExrfUaKsEXiS" version="22.0.8" type="device">
  <diagram id="C5RBs43oDa-KdzZeNtuy" name="Page-1">
    <mxGraphModel dx="1434" dy="782" grid="1" gridSize="10" guides="1" tooltips="1" connect="1" arrows="1" fold="1" page="1" pageScale="1" pageWidth="827" pageHeight="1169" math="0" shadow="0">
      <root>
        <mxCell id="WIyWlLk6GJQsqaUBKTNV-0" />
        <mxCell id="WIyWlLk6GJQsqaUBKTNV-1" parent="WIyWlLk6GJQsqaUBKTNV-0" />
        <mxCell id="biQJhRwwuyo8RDTUETOR-1" style="edgeStyle=orthogonalEdgeStyle;rounded=0;orthogonalLoop=1;jettySize=auto;html=1;" edge="1" parent="WIyWlLk6GJQsqaUBKTNV-1" source="biQJhRwwuyo8RDTUETOR-0" target="biQJhRwwuyo8RDTUETOR-2">
          <mxGeometry relative="1" as="geometry">
            <mxPoint x="354" y="400" as="targetPoint" />
          </mxGeometry>
        </mxCell>
        <mxCell id="biQJhRwwuyo8RDTUETOR-0" value="begin" style="ellipse;whiteSpace=wrap;html=1;" vertex="1" parent="WIyWlLk6GJQsqaUBKTNV-1">
          <mxGeometry x="294" y="240" width="120" height="80" as="geometry" />
        </mxCell>
        <mxCell id="biQJhRwwuyo8RDTUETOR-6" style="edgeStyle=orthogonalEdgeStyle;rounded=0;orthogonalLoop=1;jettySize=auto;html=1;" edge="1" parent="WIyWlLk6GJQsqaUBKTNV-1" source="biQJhRwwuyo8RDTUETOR-2">
          <mxGeometry relative="1" as="geometry">
            <mxPoint x="354" y="480" as="targetPoint" />
          </mxGeometry>
        </mxCell>
        <mxCell id="biQJhRwwuyo8RDTUETOR-15" style="edgeStyle=orthogonalEdgeStyle;rounded=0;orthogonalLoop=1;jettySize=auto;html=1;" edge="1" parent="WIyWlLk6GJQsqaUBKTNV-1" source="biQJhRwwuyo8RDTUETOR-2">
          <mxGeometry relative="1" as="geometry">
            <mxPoint x="220" y="400" as="targetPoint" />
          </mxGeometry>
        </mxCell>
        <mxCell id="biQJhRwwuyo8RDTUETOR-2" value="a,b" style="shape=parallelogram;perimeter=parallelogramPerimeter;whiteSpace=wrap;html=1;fixedSize=1;" vertex="1" parent="WIyWlLk6GJQsqaUBKTNV-1">
          <mxGeometry x="294" y="370" width="120" height="60" as="geometry" />
        </mxCell>
        <mxCell id="biQJhRwwuyo8RDTUETOR-10" style="edgeStyle=orthogonalEdgeStyle;rounded=0;orthogonalLoop=1;jettySize=auto;html=1;" edge="1" parent="WIyWlLk6GJQsqaUBKTNV-1" source="biQJhRwwuyo8RDTUETOR-9" target="biQJhRwwuyo8RDTUETOR-11">
          <mxGeometry relative="1" as="geometry">
            <mxPoint x="560" y="520" as="targetPoint" />
          </mxGeometry>
        </mxCell>
        <mxCell id="biQJhRwwuyo8RDTUETOR-9" value="a=0" style="rhombus;whiteSpace=wrap;html=1;" vertex="1" parent="WIyWlLk6GJQsqaUBKTNV-1">
          <mxGeometry x="314" y="480" width="80" height="80" as="geometry" />
        </mxCell>
        <mxCell id="biQJhRwwuyo8RDTUETOR-33" style="edgeStyle=orthogonalEdgeStyle;rounded=0;orthogonalLoop=1;jettySize=auto;html=1;entryX=1;entryY=0.663;entryDx=0;entryDy=0;entryPerimeter=0;" edge="1" parent="WIyWlLk6GJQsqaUBKTNV-1" source="biQJhRwwuyo8RDTUETOR-11" target="biQJhRwwuyo8RDTUETOR-37">
          <mxGeometry relative="1" as="geometry">
            <mxPoint x="560" y="890" as="targetPoint" />
          </mxGeometry>
        </mxCell>
        <mxCell id="biQJhRwwuyo8RDTUETOR-11" value="pt bac 1" style="rounded=0;whiteSpace=wrap;html=1;" vertex="1" parent="WIyWlLk6GJQsqaUBKTNV-1">
          <mxGeometry x="460" y="500" width="120" height="60" as="geometry" />
        </mxCell>
        <mxCell id="biQJhRwwuyo8RDTUETOR-12" value="true" style="text;html=1;align=center;verticalAlign=middle;resizable=0;points=[];autosize=1;strokeColor=none;fillColor=none;" vertex="1" parent="WIyWlLk6GJQsqaUBKTNV-1">
          <mxGeometry x="400" y="480" width="40" height="30" as="geometry" />
        </mxCell>
        <mxCell id="biQJhRwwuyo8RDTUETOR-21" style="edgeStyle=orthogonalEdgeStyle;rounded=0;orthogonalLoop=1;jettySize=auto;html=1;" edge="1" parent="WIyWlLk6GJQsqaUBKTNV-1" source="biQJhRwwuyo8RDTUETOR-18" target="biQJhRwwuyo8RDTUETOR-22">
          <mxGeometry relative="1" as="geometry">
            <mxPoint x="180" y="610" as="targetPoint" />
          </mxGeometry>
        </mxCell>
        <mxCell id="biQJhRwwuyo8RDTUETOR-24" style="edgeStyle=orthogonalEdgeStyle;rounded=0;orthogonalLoop=1;jettySize=auto;html=1;entryX=0.5;entryY=0;entryDx=0;entryDy=0;" edge="1" parent="WIyWlLk6GJQsqaUBKTNV-1" source="biQJhRwwuyo8RDTUETOR-18" target="biQJhRwwuyo8RDTUETOR-23">
          <mxGeometry relative="1" as="geometry" />
        </mxCell>
        <mxCell id="biQJhRwwuyo8RDTUETOR-29" style="edgeStyle=orthogonalEdgeStyle;rounded=0;orthogonalLoop=1;jettySize=auto;html=1;" edge="1" parent="WIyWlLk6GJQsqaUBKTNV-1" source="biQJhRwwuyo8RDTUETOR-18" target="biQJhRwwuyo8RDTUETOR-30">
          <mxGeometry relative="1" as="geometry">
            <mxPoint x="310" y="600" as="targetPoint" />
          </mxGeometry>
        </mxCell>
        <mxCell id="biQJhRwwuyo8RDTUETOR-18" value="b binh tru 4ac" style="rounded=0;whiteSpace=wrap;html=1;" vertex="1" parent="WIyWlLk6GJQsqaUBKTNV-1">
          <mxGeometry x="120" y="490" width="120" height="60" as="geometry" />
        </mxCell>
        <mxCell id="biQJhRwwuyo8RDTUETOR-20" style="edgeStyle=orthogonalEdgeStyle;rounded=0;orthogonalLoop=1;jettySize=auto;html=1;entryX=0.5;entryY=0;entryDx=0;entryDy=0;" edge="1" parent="WIyWlLk6GJQsqaUBKTNV-1" source="biQJhRwwuyo8RDTUETOR-19" target="biQJhRwwuyo8RDTUETOR-18">
          <mxGeometry relative="1" as="geometry" />
        </mxCell>
        <mxCell id="biQJhRwwuyo8RDTUETOR-19" value="a khac 0" style="rhombus;whiteSpace=wrap;html=1;" vertex="1" parent="WIyWlLk6GJQsqaUBKTNV-1">
          <mxGeometry x="140" y="360" width="80" height="80" as="geometry" />
        </mxCell>
        <mxCell id="biQJhRwwuyo8RDTUETOR-25" style="edgeStyle=orthogonalEdgeStyle;rounded=0;orthogonalLoop=1;jettySize=auto;html=1;" edge="1" parent="WIyWlLk6GJQsqaUBKTNV-1" source="biQJhRwwuyo8RDTUETOR-22" target="biQJhRwwuyo8RDTUETOR-26">
          <mxGeometry relative="1" as="geometry">
            <mxPoint x="60" y="750" as="targetPoint" />
          </mxGeometry>
        </mxCell>
        <mxCell id="biQJhRwwuyo8RDTUETOR-22" value="pt &amp;lt;0" style="rhombus;whiteSpace=wrap;html=1;" vertex="1" parent="WIyWlLk6GJQsqaUBKTNV-1">
          <mxGeometry x="20" y="600" width="80" height="80" as="geometry" />
        </mxCell>
        <mxCell id="biQJhRwwuyo8RDTUETOR-27" style="edgeStyle=orthogonalEdgeStyle;rounded=0;orthogonalLoop=1;jettySize=auto;html=1;" edge="1" parent="WIyWlLk6GJQsqaUBKTNV-1" source="biQJhRwwuyo8RDTUETOR-23" target="biQJhRwwuyo8RDTUETOR-28">
          <mxGeometry relative="1" as="geometry">
            <mxPoint x="180" y="730" as="targetPoint" />
          </mxGeometry>
        </mxCell>
        <mxCell id="biQJhRwwuyo8RDTUETOR-23" value="pt =0" style="rhombus;whiteSpace=wrap;html=1;" vertex="1" parent="WIyWlLk6GJQsqaUBKTNV-1">
          <mxGeometry x="140" y="600" width="80" height="80" as="geometry" />
        </mxCell>
        <mxCell id="biQJhRwwuyo8RDTUETOR-34" style="edgeStyle=orthogonalEdgeStyle;rounded=0;orthogonalLoop=1;jettySize=auto;html=1;entryX=0.114;entryY=0.125;entryDx=0;entryDy=0;entryPerimeter=0;" edge="1" parent="WIyWlLk6GJQsqaUBKTNV-1" source="biQJhRwwuyo8RDTUETOR-26" target="biQJhRwwuyo8RDTUETOR-37">
          <mxGeometry relative="1" as="geometry">
            <mxPoint x="70" y="880" as="targetPoint" />
          </mxGeometry>
        </mxCell>
        <mxCell id="biQJhRwwuyo8RDTUETOR-26" value="pt vo nghiem" style="rounded=0;whiteSpace=wrap;html=1;" vertex="1" parent="WIyWlLk6GJQsqaUBKTNV-1">
          <mxGeometry y="720" width="120" height="60" as="geometry" />
        </mxCell>
        <mxCell id="biQJhRwwuyo8RDTUETOR-35" style="edgeStyle=orthogonalEdgeStyle;rounded=0;orthogonalLoop=1;jettySize=auto;html=1;entryX=0.429;entryY=0;entryDx=0;entryDy=0;entryPerimeter=0;" edge="1" parent="WIyWlLk6GJQsqaUBKTNV-1" source="biQJhRwwuyo8RDTUETOR-28" target="biQJhRwwuyo8RDTUETOR-37">
          <mxGeometry relative="1" as="geometry">
            <mxPoint x="190" y="880" as="targetPoint" />
            <Array as="points" />
          </mxGeometry>
        </mxCell>
        <mxCell id="biQJhRwwuyo8RDTUETOR-28" value="pt co nghiem kep :&lt;br&gt;-b/2a" style="rounded=0;whiteSpace=wrap;html=1;" vertex="1" parent="WIyWlLk6GJQsqaUBKTNV-1">
          <mxGeometry x="130" y="720" width="120" height="60" as="geometry" />
        </mxCell>
        <mxCell id="biQJhRwwuyo8RDTUETOR-31" style="edgeStyle=orthogonalEdgeStyle;rounded=0;orthogonalLoop=1;jettySize=auto;html=1;" edge="1" parent="WIyWlLk6GJQsqaUBKTNV-1" source="biQJhRwwuyo8RDTUETOR-30" target="biQJhRwwuyo8RDTUETOR-32">
          <mxGeometry relative="1" as="geometry">
            <mxPoint x="310" y="730" as="targetPoint" />
          </mxGeometry>
        </mxCell>
        <mxCell id="biQJhRwwuyo8RDTUETOR-30" value="pt co 2 nghiem phan biet" style="rhombus;whiteSpace=wrap;html=1;" vertex="1" parent="WIyWlLk6GJQsqaUBKTNV-1">
          <mxGeometry x="270" y="610" width="80" height="80" as="geometry" />
        </mxCell>
        <mxCell id="biQJhRwwuyo8RDTUETOR-36" style="edgeStyle=orthogonalEdgeStyle;rounded=0;orthogonalLoop=1;jettySize=auto;html=1;" edge="1" parent="WIyWlLk6GJQsqaUBKTNV-1" source="biQJhRwwuyo8RDTUETOR-32" target="biQJhRwwuyo8RDTUETOR-37">
          <mxGeometry relative="1" as="geometry">
            <mxPoint x="330" y="890" as="targetPoint" />
          </mxGeometry>
        </mxCell>
        <mxCell id="biQJhRwwuyo8RDTUETOR-32" value="x1=(-b+sqrt(dt))/2a&lt;br&gt;x2=(-b-sqrt(dt))/2a&lt;br&gt;" style="rounded=0;whiteSpace=wrap;html=1;" vertex="1" parent="WIyWlLk6GJQsqaUBKTNV-1">
          <mxGeometry x="270" y="720" width="120" height="60" as="geometry" />
        </mxCell>
        <mxCell id="biQJhRwwuyo8RDTUETOR-37" value="end" style="ellipse;whiteSpace=wrap;html=1;" vertex="1" parent="WIyWlLk6GJQsqaUBKTNV-1">
          <mxGeometry x="110" y="960" width="350" height="80" as="geometry" />
        </mxCell>
      </root>
    </mxGraphModel>
  </diagram>
</mxfile>
